# xmcd
#
# Track frame offsets: 
#        150
#        18262
#        29997
#        50750
#        64785
#        85245
#        101245
#        114790
#        142982
#        161145
#        175415
#        189817
#
# Disc length: 2857 seconds
#
# Revision: 0
# Processed by: cddbd v1.4PL0 Copyright (c) Steve Scherf et al.
# Submitted via: ExactAudioCopy v0.90b4
#
DISCID=a20b270c
DTITLE=Iko-Iko - Shine
DYEAR=2000
DGENRE=Blues
TTITLE0=Teasing the Trains
TTITLE1=(I Never Had) An American Dream
TTITLE2=Shine
TTITLE3=Prescription for the Blues
TTITLE4=Pet De Kat
TTITLE5=Hole in the River
TTITLE6=I Want My Goddam Money
TTITLE7=(Stars Fall From the Sky Like) Angels With Their Wings On Fire
TTITLE8=Spy Boy
TTITLE9=Too High to Drive
TTITLE10=Iko-A-Go-Go
TTITLE11=Riding on the Rims
EXTD=
EXTT0=
EXTT1=
EXTT2=
EXTT3=
EXTT4=
EXTT5=
EXTT6=
EXTT7=
EXTT8=
EXTT9=
EXTT10=
EXTT11=
PLAYORDER=
